# xmcd
#
# Track frame offsets:
#	150
#	13221
#	31409
#	42789
#	61828
#	76367
#	94957
#	108108
#	121671
#	138678
#	154233
#	167497
#	181734
#	201062
#	221933
#	238950
#	259285
#	281023
#
# Disc length: 4003 seconds
#
# Revision: 1
# Processed by: cddbd v1.5.2PL0 Copyright (c) Steve Scherf et al.
# Submitted via: audiograbber 1.83.01
#
DISCID=000fa112
DTITLE=John Denver - The Essential (China)
DYEAR=1900
DGENRE=
TTITLE0=Thank God I'm A Country Boy
TTITLE1=Some Days Are Diamonds
TTITLE2=Follow Me
TTITLE3=Fly Away
TTITLE4=Shanghai Breezes
TTITLE5=Wild Montana Skies
TTITLE6=Love Again
TTITLE7=Perhaps Love
TTITLE8=Is It Love
TTITLE9=Friends With You
TTITLE10=The Flower That Shattered The Stone
TTITLE11=Starwood In Aspen
TTITLE12=Don't Close Your Eyes Tonight
TTITLE13=Sing Australia
TTITLE14=Like Sad Song
TTITLE15=My Sweet Song
TTITLE16=Eagle and Horses
TTITLE17=Potter's Wheel
EXTD=
EXTT0=
EXTT1=
EXTT2=
EXTT3=
EXTT4=
EXTT5=
EXTT6=
EXTT7=
EXTT8=
EXTT9=
EXTT10=
EXTT11=
EXTT12=
EXTT13=
EXTT14=
EXTT15=
EXTT16=
EXTT17=
PLAYORDER=
